<svg width="202" height="30" viewBox="0 0 202 30" fill="none" xmlns="http://www.w3.org/2000/svg">
<path d="M1 21.5L19.4668 3.45288C21.5192 1.44716 24.7045 1.17551 27.0668 2.80473L35.9619 8.93929C36.9636 9.63008 38.1516 10 39.3683 10H57.7404C59.4919 10 61.156 10.7654 62.2959 12.0953L74.7134 26.5823C76.8232 29.0438 80.5068 29.3842 83.0319 27.3509L111.852 4.1449C114.611 1.92338 118.684 2.56295 120.63 5.52318L126.722 14.7951C127.832 16.4834 129.717 17.5 131.737 17.5H149.603C151.71 17.5 153.663 16.3942 154.748 14.587L157.636 9.77257C160.121 5.63157 166.23 5.97295 168.238 10.365L170.125 14.4932C170.981 16.3651 172.737 17.6677 174.776 17.9442L201 21.5" stroke="#FBE591" stroke-width="1.5"/>
</svg>
