<svg width="482" height="243" viewBox="0 0 482 243" fill="none" xmlns="http://www.w3.org/2000/svg">
<path d="M22.6616 224.16C22.1149 224.16 21.6382 224.013 21.2316 223.72C20.8249 223.42 20.5382 223.003 20.3716 222.47L21.4116 222.04C21.6182 222.74 22.0349 223.09 22.6616 223.09C23.0082 223.09 23.2849 222.973 23.4916 222.74C23.6982 222.5 23.8016 222.187 23.8016 221.8V216.84H24.9116V221.76C24.9116 222.267 24.8149 222.7 24.6216 223.06C24.4282 223.42 24.1616 223.693 23.8216 223.88C23.4816 224.067 23.0949 224.16 22.6616 224.16ZM27.8494 224.16C27.4827 224.16 27.156 224.09 26.8694 223.95C26.5827 223.803 26.3594 223.6 26.1994 223.34C26.0394 223.073 25.9594 222.773 25.9594 222.44C25.9594 221.913 26.156 221.497 26.5494 221.19C26.9494 220.883 27.4527 220.73 28.0594 220.73C28.3594 220.73 28.6294 220.76 28.8694 220.82C29.1094 220.873 29.2994 220.933 29.4394 221V220.74C29.4394 220.427 29.3227 220.173 29.0894 219.98C28.856 219.78 28.556 219.68 28.1894 219.68C27.9294 219.68 27.6827 219.737 27.4494 219.85C27.2227 219.963 27.0394 220.12 26.8994 220.32L26.1294 219.73C26.356 219.417 26.6494 219.173 27.0094 219C27.3694 218.827 27.7694 218.74 28.2094 218.74C28.9494 218.74 29.5194 218.923 29.9194 219.29C30.3194 219.65 30.5194 220.16 30.5194 220.82V224H29.4394V223.39H29.3894C29.2427 223.61 29.036 223.793 28.7694 223.94C28.5027 224.087 28.196 224.16 27.8494 224.16ZM28.0394 223.25C28.306 223.25 28.546 223.187 28.7594 223.06C28.9727 222.933 29.1394 222.763 29.2594 222.55C29.3794 222.337 29.4394 222.107 29.4394 221.86C29.286 221.773 29.106 221.703 28.8994 221.65C28.6994 221.597 28.4894 221.57 28.2694 221.57C27.856 221.57 27.5527 221.653 27.3594 221.82C27.166 221.98 27.0694 222.19 27.0694 222.45C27.0694 222.683 27.1594 222.877 27.3394 223.03C27.5194 223.177 27.7527 223.25 28.0394 223.25ZM31.7181 218.9H32.7681V219.57H32.8181C32.9648 219.33 33.1815 219.133 33.4681 218.98C33.7615 218.82 34.0715 218.74 34.3981 218.74C35.0181 218.74 35.4881 218.923 35.8081 219.29C36.1348 219.65 36.2981 220.143 36.2981 220.77V224H35.1981V220.92C35.1981 220.52 35.0981 220.227 34.8981 220.04C34.7048 219.853 34.4348 219.76 34.0881 219.76C33.8415 219.76 33.6215 219.83 33.4281 219.97C33.2348 220.103 33.0848 220.283 32.9781 220.51C32.8715 220.737 32.8181 220.98 32.8181 221.24V224H31.7181V218.9Z" fill="#9A9FAD"/>
<path d="M73.2311 216.84H77.5811V217.91H74.3511V219.97H77.2611V221.03H74.3511V224H73.2311V216.84ZM80.6155 224.16C80.1155 224.16 79.6655 224.043 79.2655 223.81C78.8722 223.577 78.5622 223.257 78.3355 222.85C78.1155 222.437 78.0055 221.973 78.0055 221.46C78.0055 220.973 78.1122 220.523 78.3255 220.11C78.5455 219.69 78.8488 219.357 79.2355 219.11C79.6222 218.863 80.0622 218.74 80.5555 218.74C81.0688 218.74 81.5122 218.853 81.8855 219.08C82.2655 219.307 82.5522 219.617 82.7455 220.01C82.9455 220.403 83.0455 220.847 83.0455 221.34C83.0455 221.433 83.0355 221.55 83.0155 221.69H79.1055C79.1455 222.163 79.3122 222.53 79.6055 222.79C79.9055 223.043 80.2522 223.17 80.6455 223.17C80.9588 223.17 81.2288 223.1 81.4555 222.96C81.6888 222.813 81.8755 222.617 82.0155 222.37L82.9455 222.81C82.7055 223.23 82.3922 223.56 82.0055 223.8C81.6188 224.04 81.1555 224.16 80.6155 224.16ZM81.9255 220.85C81.9122 220.67 81.8555 220.493 81.7555 220.32C81.6555 220.14 81.5022 219.99 81.2955 219.87C81.0955 219.75 80.8488 219.69 80.5555 219.69C80.2022 219.69 79.9022 219.797 79.6555 220.01C79.4155 220.217 79.2488 220.497 79.1555 220.85H81.9255ZM86.7672 224.16C86.4072 224.16 86.0839 224.08 85.7972 223.92C85.5106 223.76 85.2939 223.567 85.1472 223.34H85.0972V224H84.0472V216.84H85.1472V218.85L85.0972 219.57H85.1472C85.2939 219.337 85.5106 219.14 85.7972 218.98C86.0839 218.82 86.4072 218.74 86.7672 218.74C87.2272 218.74 87.6439 218.857 88.0172 219.09C88.3906 219.323 88.6839 219.647 88.8972 220.06C89.1172 220.467 89.2272 220.93 89.2272 221.45C89.2272 221.97 89.1172 222.437 88.8972 222.85C88.6839 223.257 88.3906 223.577 88.0172 223.81C87.6439 224.043 87.2272 224.16 86.7672 224.16ZM86.6072 223.15C86.8739 223.15 87.1239 223.08 87.3572 222.94C87.5906 222.8 87.7772 222.6 87.9172 222.34C88.0572 222.08 88.1272 221.783 88.1272 221.45C88.1272 221.117 88.0572 220.823 87.9172 220.57C87.7772 220.31 87.5906 220.11 87.3572 219.97C87.1239 219.83 86.8739 219.76 86.6072 219.76C86.3406 219.76 86.0906 219.83 85.8572 219.97C85.6306 220.11 85.4472 220.31 85.3072 220.57C85.1672 220.823 85.0972 221.117 85.0972 221.45C85.0972 221.783 85.1672 222.08 85.3072 222.34C85.4472 222.6 85.6306 222.8 85.8572 222.94C86.0906 223.08 86.3406 223.15 86.6072 223.15Z" fill="#9A9FAD"/>
<path d="M126.209 216.84H127.729L129.789 222.27H129.849L131.909 216.84H133.429V224H132.319V219.99L132.379 218.7H132.319L130.269 224H129.369L127.319 218.7H127.259L127.319 219.99V224H126.209V216.84ZM136.34 224.16C135.973 224.16 135.646 224.09 135.36 223.95C135.073 223.803 134.85 223.6 134.69 223.34C134.53 223.073 134.45 222.773 134.45 222.44C134.45 221.913 134.646 221.497 135.04 221.19C135.44 220.883 135.943 220.73 136.55 220.73C136.85 220.73 137.12 220.76 137.36 220.82C137.6 220.873 137.79 220.933 137.93 221V220.74C137.93 220.427 137.813 220.173 137.58 219.98C137.346 219.78 137.046 219.68 136.68 219.68C136.42 219.68 136.173 219.737 135.94 219.85C135.713 219.963 135.53 220.12 135.39 220.32L134.62 219.73C134.846 219.417 135.14 219.173 135.5 219C135.86 218.827 136.26 218.74 136.7 218.74C137.44 218.74 138.01 218.923 138.41 219.29C138.81 219.65 139.01 220.16 139.01 220.82V224H137.93V223.39H137.88C137.733 223.61 137.526 223.793 137.26 223.94C136.993 224.087 136.686 224.16 136.34 224.16ZM136.53 223.25C136.796 223.25 137.036 223.187 137.25 223.06C137.463 222.933 137.63 222.763 137.75 222.55C137.87 222.337 137.93 222.107 137.93 221.86C137.776 221.773 137.596 221.703 137.39 221.65C137.19 221.597 136.98 221.57 136.76 221.57C136.346 221.57 136.043 221.653 135.85 221.82C135.656 221.98 135.56 222.19 135.56 222.45C135.56 222.683 135.65 222.877 135.83 223.03C136.01 223.177 136.243 223.25 136.53 223.25ZM140.208 218.9H141.258V219.65H141.308C141.422 219.39 141.618 219.177 141.898 219.01C142.178 218.837 142.475 218.75 142.788 218.75C143.035 218.75 143.242 218.783 143.408 218.85V219.99C143.115 219.883 142.852 219.83 142.618 219.83C142.365 219.83 142.138 219.897 141.938 220.03C141.745 220.163 141.592 220.343 141.478 220.57C141.365 220.79 141.308 221.033 141.308 221.3V224H140.208V218.9Z" fill="#9A9FAD"/>
<path d="M182.266 216.84H183.546L186.236 224H184.996L184.356 222.17H181.466L180.816 224H179.576L182.266 216.84ZM183.976 221.13L183.216 219L182.936 218.17H182.876L182.596 219L181.836 221.13H183.976ZM187.038 218.9H188.088V219.57H188.138C188.284 219.337 188.501 219.14 188.788 218.98C189.074 218.82 189.398 218.74 189.758 218.74C190.218 218.74 190.634 218.857 191.008 219.09C191.381 219.323 191.674 219.647 191.888 220.06C192.108 220.467 192.218 220.93 192.218 221.45C192.218 221.97 192.108 222.437 191.888 222.85C191.674 223.257 191.381 223.577 191.008 223.81C190.634 224.043 190.218 224.16 189.758 224.16C189.398 224.16 189.074 224.08 188.788 223.92C188.501 223.76 188.284 223.567 188.138 223.34H188.088L188.138 224.05V226.16H187.038V218.9ZM189.598 223.15C189.864 223.15 190.114 223.08 190.348 222.94C190.581 222.8 190.768 222.6 190.908 222.34C191.048 222.08 191.118 221.783 191.118 221.45C191.118 221.117 191.048 220.823 190.908 220.57C190.768 220.31 190.581 220.11 190.348 219.97C190.114 219.83 189.864 219.76 189.598 219.76C189.331 219.76 189.081 219.83 188.848 219.97C188.621 220.11 188.438 220.31 188.298 220.57C188.158 220.823 188.088 221.117 188.088 221.45C188.088 221.783 188.158 222.08 188.298 222.34C188.438 222.6 188.621 222.8 188.848 222.94C189.081 223.08 189.331 223.15 189.598 223.15ZM193.171 218.9H194.221V219.65H194.271C194.385 219.39 194.581 219.177 194.861 219.01C195.141 218.837 195.438 218.75 195.751 218.75C195.998 218.75 196.205 218.783 196.371 218.85V219.99C196.078 219.883 195.815 219.83 195.581 219.83C195.328 219.83 195.101 219.897 194.901 220.03C194.708 220.163 194.555 220.343 194.441 220.57C194.328 220.79 194.271 221.033 194.271 221.3V224H193.171V218.9Z" fill="#9A9FAD"/>
<path d="M233.04 216.84H234.56L236.62 222.27H236.68L238.74 216.84H240.26V224H239.15V219.99L239.21 218.7H239.15L237.1 224H236.2L234.15 218.7H234.09L234.15 219.99V224H233.04V216.84ZM243.171 224.16C242.804 224.16 242.477 224.09 242.191 223.95C241.904 223.803 241.681 223.6 241.521 223.34C241.361 223.073 241.281 222.773 241.281 222.44C241.281 221.913 241.477 221.497 241.871 221.19C242.271 220.883 242.774 220.73 243.381 220.73C243.681 220.73 243.951 220.76 244.191 220.82C244.431 220.873 244.621 220.933 244.761 221V220.74C244.761 220.427 244.644 220.173 244.411 219.98C244.177 219.78 243.877 219.68 243.511 219.68C243.251 219.68 243.004 219.737 242.771 219.85C242.544 219.963 242.361 220.12 242.221 220.32L241.451 219.73C241.677 219.417 241.971 219.173 242.331 219C242.691 218.827 243.091 218.74 243.531 218.74C244.271 218.74 244.841 218.923 245.241 219.29C245.641 219.65 245.841 220.16 245.841 220.82V224H244.761V223.39H244.711C244.564 223.61 244.357 223.793 244.091 223.94C243.824 224.087 243.517 224.16 243.171 224.16ZM243.361 223.25C243.627 223.25 243.867 223.187 244.081 223.06C244.294 222.933 244.461 222.763 244.581 222.55C244.701 222.337 244.761 222.107 244.761 221.86C244.607 221.773 244.427 221.703 244.221 221.65C244.021 221.597 243.811 221.57 243.591 221.57C243.177 221.57 242.874 221.653 242.681 221.82C242.487 221.98 242.391 222.19 242.391 222.45C242.391 222.683 242.481 222.877 242.661 223.03C242.841 223.177 243.074 223.25 243.361 223.25ZM248.502 223.72L246.382 218.9H247.612L249.052 222.37H249.092L250.492 218.9H251.702L248.552 226.16H247.392L248.502 223.72Z" fill="#9A9FAD"/>
<path d="M290.035 224.16C289.488 224.16 289.011 224.013 288.605 223.72C288.198 223.42 287.911 223.003 287.745 222.47L288.785 222.04C288.991 222.74 289.408 223.09 290.035 223.09C290.381 223.09 290.658 222.973 290.865 222.74C291.071 222.5 291.175 222.187 291.175 221.8V216.84H292.285V221.76C292.285 222.267 292.188 222.7 291.995 223.06C291.801 223.42 291.535 223.693 291.195 223.88C290.855 224.067 290.468 224.16 290.035 224.16ZM295.385 224.16C294.765 224.16 294.291 223.977 293.965 223.61C293.645 223.237 293.485 222.72 293.485 222.06V218.9H294.585V221.91C294.585 222.323 294.681 222.633 294.875 222.84C295.075 223.047 295.335 223.15 295.655 223.15C295.915 223.15 296.145 223.083 296.345 222.95C296.545 222.81 296.698 222.627 296.805 222.4C296.911 222.173 296.965 221.93 296.965 221.67V218.9H298.065V224H297.025V223.34H296.965C296.825 223.58 296.608 223.777 296.315 223.93C296.021 224.083 295.711 224.16 295.385 224.16ZM299.345 218.9H300.395V219.57H300.445C300.592 219.33 300.808 219.133 301.095 218.98C301.388 218.82 301.698 218.74 302.025 218.74C302.645 218.74 303.115 218.923 303.435 219.29C303.762 219.65 303.925 220.143 303.925 220.77V224H302.825V220.92C302.825 220.52 302.725 220.227 302.525 220.04C302.332 219.853 302.062 219.76 301.715 219.76C301.468 219.76 301.248 219.83 301.055 219.97C300.862 220.103 300.712 220.283 300.605 220.51C300.498 220.737 300.445 220.98 300.445 221.24V224H299.345V218.9Z" fill="#9A9FAD"/>
<path d="M342.748 224.16C342.202 224.16 341.725 224.013 341.318 223.72C340.912 223.42 340.625 223.003 340.458 222.47L341.498 222.04C341.705 222.74 342.122 223.09 342.748 223.09C343.095 223.09 343.372 222.973 343.578 222.74C343.785 222.5 343.888 222.187 343.888 221.8V216.84H344.998V221.76C344.998 222.267 344.902 222.7 344.708 223.06C344.515 223.42 344.248 223.693 343.908 223.88C343.568 224.067 343.182 224.16 342.748 224.16ZM348.099 224.16C347.479 224.16 347.005 223.977 346.679 223.61C346.359 223.237 346.199 222.72 346.199 222.06V218.9H347.299V221.91C347.299 222.323 347.395 222.633 347.589 222.84C347.789 223.047 348.049 223.15 348.369 223.15C348.629 223.15 348.859 223.083 349.059 222.95C349.259 222.81 349.412 222.627 349.519 222.4C349.625 222.173 349.679 221.93 349.679 221.67V218.9H350.779V224H349.739V223.34H349.679C349.539 223.58 349.322 223.777 349.029 223.93C348.735 224.083 348.425 224.16 348.099 224.16ZM352.059 216.84H353.159V224H352.059V216.84Z" fill="#9A9FAD"/>
<path d="M392.033 216.84H393.313L396.003 224H394.763L394.123 222.17H391.233L390.583 224H389.343L392.033 216.84ZM393.743 221.13L392.983 219L392.703 218.17H392.643L392.363 219L391.603 221.13H393.743ZM398.402 224.16C397.782 224.16 397.309 223.977 396.982 223.61C396.662 223.237 396.502 222.72 396.502 222.06V218.9H397.602V221.91C397.602 222.323 397.699 222.633 397.892 222.84C398.092 223.047 398.352 223.15 398.672 223.15C398.932 223.15 399.162 223.083 399.362 222.95C399.562 222.81 399.716 222.627 399.822 222.4C399.929 222.173 399.982 221.93 399.982 221.67V218.9H401.082V224H400.042V223.34H399.982C399.842 223.58 399.626 223.777 399.332 223.93C399.039 224.083 398.729 224.16 398.402 224.16ZM404.614 226.32C403.987 226.32 403.467 226.177 403.054 225.89C402.647 225.603 402.374 225.263 402.234 224.87L403.264 224.44C403.37 224.707 403.54 224.92 403.774 225.08C404.014 225.247 404.294 225.33 404.614 225.33C405.08 225.33 405.444 225.19 405.704 224.91C405.97 224.637 406.104 224.25 406.104 223.75V223.28H406.044C405.877 223.52 405.654 223.71 405.374 223.85C405.1 223.983 404.784 224.05 404.424 224.05C403.997 224.05 403.6 223.94 403.234 223.72C402.867 223.5 402.574 223.19 402.354 222.79C402.14 222.383 402.034 221.92 402.034 221.4C402.034 220.88 402.14 220.42 402.354 220.02C402.574 219.613 402.867 219.3 403.234 219.08C403.6 218.853 403.997 218.74 404.424 218.74C404.777 218.74 405.094 218.81 405.374 218.95C405.654 219.09 405.877 219.28 406.044 219.52H406.104V218.9H407.154V223.72C407.154 224.273 407.047 224.743 406.834 225.13C406.62 225.523 406.32 225.82 405.934 226.02C405.554 226.22 405.114 226.32 404.614 226.32ZM404.624 223.05C404.89 223.05 405.137 222.987 405.364 222.86C405.59 222.727 405.77 222.537 405.904 222.29C406.037 222.037 406.104 221.74 406.104 221.4C406.104 220.88 405.96 220.477 405.674 220.19C405.394 219.897 405.044 219.75 404.624 219.75C404.35 219.75 404.1 219.817 403.874 219.95C403.647 220.077 403.467 220.263 403.334 220.51C403.2 220.757 403.134 221.053 403.134 221.4C403.134 221.747 403.2 222.043 403.334 222.29C403.467 222.537 403.647 222.727 403.874 222.86C404.1 222.987 404.35 223.05 404.624 223.05Z" fill="#9A9FAD"/>
<path d="M39 135.865C33.4 117.065 25.3333 128.031 22 135.865V203H397.5V41.3656C393.833 48.0321 383.8 60.5652 373 57.3652C359.5 53.3652 350.5 56.3652 345.5 65.8652C340.5 75.3652 324.5 90.8652 314.5 77.8652C302.9 61.4653 296.667 73.0319 294 79.8652C292.667 86.6985 286.7 99.0651 273.5 93.8652C260.3 88.6653 254 98.3653 252.5 103.865C243.667 120.865 223.8 138.266 215 71.8656C204 -11.1344 179.5 26.8656 178.5 41.3656C177.5 55.8656 169.714 97.0764 157.5 100.365C144 104 142.667 109.749 134 116.865C125.674 123.701 129.2 135.865 114 135.865C95 135.865 79.5 147.365 68 165.365C56.5 183.365 46 159.365 39 135.865Z" fill="url(#paint0_linear_1_107)"/>
<g filter="url(#filter0_f_1_107)">
<ellipse cx="406" cy="121.5" rx="42" ry="87.5" fill="white"/>
</g>
<g filter="url(#filter1_d_1_107)">
<path d="M22 135.865C25.3333 128.031 33.4 117.065 39 135.865C46 159.365 56.5 183.365 68 165.365C79.5 147.365 95 135.865 114 135.865C129.2 135.865 125.674 123.701 134 116.865C142.667 109.749 147 103 157.5 100.365C169.769 97.2864 177.5 55.8656 178.5 41.3656C179.5 26.8656 204 -11.1344 215 71.8656C223.8 138.266 243.667 120.865 252.5 103.865C254 98.3653 260.3 88.6653 273.5 93.8652C286.7 99.0651 292.667 86.6985 294 79.8652C296.667 73.0319 302.9 61.4653 314.5 77.8652C324.5 90.8652 340.5 75.3652 345.5 65.8652C350.5 56.3652 359.5 53.3652 373 57.3652C383.8 60.5652 393.833 48.0321 397.5 41.3656" stroke="#2E5FDE" stroke-width="3" stroke-linecap="round"/>
</g>
<rect x="221" y="104" width="33" height="103" rx="10" fill="url(#paint1_linear_1_107)"/>
<g filter="url(#filter2_d_1_107)">
<circle cx="237" cy="116" r="8" fill="#2E5FDE"/>
<circle cx="237" cy="116" r="7" stroke="white" stroke-opacity="0.98" stroke-width="2"/>
</g>
<defs>
<filter id="filter0_f_1_107" x="330" y="0" width="152" height="243" filterUnits="userSpaceOnUse" color-interpolation-filters="sRGB">
<feFlood flood-opacity="0" result="BackgroundImageFix"/>
<feBlend mode="normal" in="SourceGraphic" in2="BackgroundImageFix" result="shape"/>
<feGaussianBlur stdDeviation="17" result="effect1_foregroundBlur_1_107"/>
</filter>
<filter id="filter1_d_1_107" x="0.499634" y="9.49844" width="418.501" height="194.659" filterUnits="userSpaceOnUse" color-interpolation-filters="sRGB">
<feFlood flood-opacity="0" result="BackgroundImageFix"/>
<feColorMatrix in="SourceAlpha" type="matrix" values="0 0 0 0 0 0 0 0 0 0 0 0 0 0 0 0 0 0 127 0" result="hardAlpha"/>
<feOffset dy="11"/>
<feGaussianBlur stdDeviation="10"/>
<feColorMatrix type="matrix" values="0 0 0 0 0.180392 0 0 0 0 0.372549 0 0 0 0 0.870588 0 0 0 0.1 0"/>
<feBlend mode="normal" in2="BackgroundImageFix" result="effect1_dropShadow_1_107"/>
<feBlend mode="normal" in="SourceGraphic" in2="effect1_dropShadow_1_107" result="shape"/>
</filter>
<filter id="filter2_d_1_107" x="205" y="92" width="64" height="64" filterUnits="userSpaceOnUse" color-interpolation-filters="sRGB">
<feFlood flood-opacity="0" result="BackgroundImageFix"/>
<feColorMatrix in="SourceAlpha" type="matrix" values="0 0 0 0 0 0 0 0 0 0 0 0 0 0 0 0 0 0 127 0" result="hardAlpha"/>
<feOffset dy="8"/>
<feGaussianBlur stdDeviation="12"/>
<feColorMatrix type="matrix" values="0 0 0 0 0.180392 0 0 0 0 0.372549 0 0 0 0 0.870588 0 0 0 1 0"/>
<feBlend mode="normal" in2="BackgroundImageFix" result="effect1_dropShadow_1_107"/>
<feBlend mode="normal" in="SourceGraphic" in2="effect1_dropShadow_1_107" result="shape"/>
</filter>
<linearGradient id="paint0_linear_1_107" x1="210" y1="16" x2="209.75" y2="216.5" gradientUnits="userSpaceOnUse">
<stop stop-color="#C5D4FC" stop-opacity="0.17"/>
<stop offset="0.848958" stop-color="#9492FF" stop-opacity="0"/>
</linearGradient>
<linearGradient id="paint1_linear_1_107" x1="237.5" y1="104" x2="237.5" y2="207" gradientUnits="userSpaceOnUse">
<stop stop-color="#0079FF" stop-opacity="0.08"/>
<stop offset="1" stop-color="#0079FF" stop-opacity="0"/>
</linearGradient>
</defs>
</svg>
