<svg width="41" height="28" viewBox="0 0 41 28" fill="none" xmlns="http://www.w3.org/2000/svg">
<path d="M27.5558 0.45323C25.1969 0.449887 22.879 1.07054 20.8373 2.25222C22.8812 3.4314 24.5784 5.12829 25.7578 7.17202C26.9373 9.21576 27.5574 11.5342 27.5558 13.8938H14.1189C14.1189 16.5523 14.9073 19.151 16.3843 21.3614C17.8613 23.5718 19.9607 25.2945 22.4169 26.3117C24.873 27.3289 27.5757 27.5948 30.183 27.0759C32.7903 26.557 35.1852 25.2765 37.0648 23.3965C38.9443 21.5164 40.2241 19.1212 40.7423 16.5137C41.2605 13.9062 40.9938 11.2037 39.9759 8.74777C38.9581 6.29189 37.2348 4.19301 35.024 2.71658C32.8132 1.24015 30.2143 0.452498 27.5558 0.45323Z" fill="#544AC3"/>
<path d="M20.8374 2.25223C18.7935 3.4314 17.0963 5.12829 15.9169 7.17203C14.7374 9.21576 14.1173 11.5342 14.1189 13.8938H27.5558C27.5574 11.5342 26.9373 9.21576 25.7578 7.17203C24.5784 5.12829 22.8812 3.4314 20.8374 2.25223Z" fill="url(#paint0_linear_1_283)"/>
<path d="M20.8374 2.25202C22.8813 3.43119 24.5784 5.12808 25.7579 7.17182C26.9374 9.21555 27.5575 11.534 27.5559 13.8936H14.119C14.118 16.2527 14.7385 18.5703 15.9179 20.6133C17.0973 22.6564 18.7941 24.3527 20.8374 25.5315C18.7942 26.7113 16.4764 27.3323 14.1171 27.3324C11.7577 27.3324 9.43996 26.7114 7.3967 25.5318C5.35343 24.3521 3.65669 22.6554 2.47701 20.6121C1.29732 18.5689 0.67627 16.2511 0.67627 13.8918C0.67627 11.5324 1.29732 9.21466 2.47701 7.17142C3.65669 5.12817 5.35343 3.43145 7.3967 2.2518C9.43996 1.07215 11.7577 0.451135 14.1171 0.451172C16.4764 0.451209 18.7942 1.0723 20.8374 2.25202Z" fill="#F26C6D"/>
<defs>
<linearGradient id="paint0_linear_1_283" x1="7.30791" y1="23.9882" x2="28.6034" y2="3.58111" gradientUnits="userSpaceOnUse">
<stop stop-color="#FFCF8E"/>
<stop offset="1" stop-color="#FF8B79"/>
</linearGradient>
</defs>
</svg>
