<svg width="202" height="30" viewBox="0 0 202 30" fill="none" xmlns="http://www.w3.org/2000/svg">
<path d="M201 21.5L182.533 3.45288C180.481 1.44716 177.296 1.17551 174.933 2.80473L166.038 8.93929C165.036 9.63008 163.848 10 162.632 10H144.26C142.508 10 140.844 10.7654 139.704 12.0953L127.287 26.5823C125.177 29.0438 121.493 29.3842 118.968 27.3509L90.1477 4.1449C87.3887 1.92338 83.3158 2.56295 81.3705 5.52318L75.2775 14.7951C74.1681 16.4834 72.2835 17.5 70.2633 17.5H52.3971C50.2896 17.5 48.3365 16.3942 47.2522 14.587L44.3635 9.77257C41.8789 5.63157 35.7695 5.97295 33.7617 10.365L31.8745 14.4932C31.0188 16.3651 29.2634 17.6677 27.2239 17.9442L1 21.5" stroke="#FFB6B6" stroke-width="1.5"/>
</svg>
